<mxfile agent="5.0 (Windows NT 10.0; Win64; x64) AppleWebKit/537.36 (KHTML, like Gecko) draw.io/13.7.3 Chrome/85.0.4183.98 Electron/10.1.2 Safari/537.36" compressed="false" etag="ZDOnQ4TrVal1CLprOYh5" host="Electron" modified="2020-10-04T09:59:48.340Z" type="device" version="13.7.3">
  <diagram id="Page-1" name="Page-1">
    <mxGraphModel arrows="1" connect="1" dx="1551" dy="1209" fold="1" grid="1" gridSize="10" guides="1" math="0" page="1" pageHeight="1169" pageScale="1" pageWidth="827" shadow="1" tooltips="1">
      <root>
        <mxCell id="0" />
        <mxCell id="1" parent="0" />
        <object id="node-1" label="node-1">
          <mxCell parent="1" style="rounded=1;whiteSpace=wrap;html=1;" vertex="1">
            <mxGeometry as="geometry" height="60" width="120" x="191" y="431" />
          </mxCell>
        </object>
        <object id="node-2" label="node-2">
          <mxCell parent="1" style="rounded=1;whiteSpace=wrap;html=1;" vertex="1">
            <mxGeometry as="geometry" height="60" width="120" x="1370" y="728" />
          </mxCell>
        </object>
        <object id="node-3" label="node-3">
          <mxCell parent="1" style="rounded=1;whiteSpace=wrap;html=1;" vertex="1">
            <mxGeometry as="geometry" height="60" width="120" x="268" y="224" />
          </mxCell>
        </object>
        <object a="b" c="d" id="node-4" label="node-4" link="http://google.com">
          <mxCell parent="1" style="rounded=1;whiteSpace=wrap;html=1;" vertex="1">
            <mxGeometry as="geometry" height="60" width="120" x="973" y="1184" />
          </mxCell>
        </object>
        <object id="node-55" label="node-55">
          <mxCell parent="1" style="shape=mxgraph.cisco.routers.atm_router;html=1;pointerEvents=1;dashed=0;fillColor=#036897;strokeColor=#ffffff;strokeWidth=2;verticalLabelPosition=bottom;verticalAlign=top;align=center;outlineConnect=0;" vertex="1">
            <mxGeometry as="geometry" height="53" width="78" x="297" y="941" />
          </mxCell>
        </object>
        <object id="b35ebf8a6eeb7084dd9f3e14ec85eb9c" label="bla1" source="node-1" target="node-2">
          <mxCell edge="1" parent="1" source="node-1" style="endArrow=none;" target="node-2">
            <mxGeometry as="geometry" relative="1" />
          </mxCell>
        </object>
        <object id="601d1f4fe959524564b9139bfd9ee1c5" label="bla2" source="node-2" target="node-3">
          <mxCell edge="1" parent="1" source="node-2" style="endArrow=none;" target="node-3">
            <mxGeometry as="geometry" relative="1" />
          </mxCell>
        </object>
        <object id="03d64cf220b7cea506298c06d433f38e" label="bla3" source="node-3" target="node-1">
          <mxCell edge="1" parent="1" source="node-3" style="endArrow=none;" target="node-1">
            <mxGeometry as="geometry" relative="1" />
          </mxCell>
        </object>
        <object id="d5fa69cbdbc6ae606177e052dcdf4fdc" label="bla4" source="node-4" target="node-3">
          <mxCell edge="1" parent="1" source="node-4" style="endArrow=none;" target="node-3">
            <mxGeometry as="geometry" relative="1" />
          </mxCell>
        </object>
        <object id="51261c22508dab030b295dc400535756" label="" source="node-55" target="node-3">
          <mxCell edge="1" parent="1" source="node-55" style="endArrow=none;" target="node-3">
            <mxGeometry as="geometry" relative="1" />
          </mxCell>
        </object>
      <object id="Router-1" label="Router-1">
      <mxCell parent="1" style="shape=mxgraph.cisco.routers.atm_router;html=1;pointerEvents=1;dashed=0;fillColor=#036897;strokeColor=#ffffff;strokeWidth=2;verticalLabelPosition=bottom;verticalAlign=top;align=center;outlineConnect=0;" vertex="1">
          <mxGeometry as="geometry" height="53" width="78" x="207" y="795" />
      </mxCell>
    </object><object id="Router-2" label="Router-2">
      <mxCell parent="1" style="shape=mxgraph.cisco.routers.atm_router;html=1;pointerEvents=1;dashed=0;fillColor=#036897;strokeColor=#ffffff;strokeWidth=2;verticalLabelPosition=bottom;verticalAlign=top;align=center;outlineConnect=0;" vertex="1">
          <mxGeometry as="geometry" height="53" width="78" x="1149" y="796" />
      </mxCell>
    </object><object id="Router-3" label="Router-3">
      <mxCell parent="1" style="shape=mxgraph.cisco.routers.atm_router;html=1;pointerEvents=1;dashed=0;fillColor=#036897;strokeColor=#ffffff;strokeWidth=2;verticalLabelPosition=bottom;verticalAlign=top;align=center;outlineConnect=0;" vertex="1">
          <mxGeometry as="geometry" height="53" width="78" x="576" y="1026" />
      </mxCell>
    </object><object id="Switch-1" label="Switch-1">
      <mxCell parent="1" style="shape=mxgraph.cisco.routers.atm_tag_switch_router;html=1;pointerEvents=1;dashed=0;fillColor=#036897;strokeColor=#ffffff;strokeWidth=2;verticalLabelPosition=bottom;verticalAlign=top;align=center;outlineConnect=0;" vertex="1">
          <mxGeometry as="geometry" height="82" width="64" x="171" y="627" />
      </mxCell>
    </object><object id="Building-1" label="Building-1">
      <mxCell parent="1" style="shape=mxgraph.cisco.buildings.generic_building;html=1;pointerEvents=1;dashed=0;fillColor=#036897;strokeColor=#ffffff;strokeWidth=2;verticalLabelPosition=bottom;verticalAlign=top;align=center;outlineConnect=0;" vertex="1">
          <mxGeometry as="geometry" height="136" width="90" x="790" y="1178" />
      </mxCell>
    </object><object id="7ce2e5e52c3af4456385a328bb0a6db8" label="" source="Router-1" target="Router-2">
      <mxCell edge="1" parent="1" source="Router-1" style="endArrow=none;" target="Router-2">
          <mxGeometry as="geometry" relative="1" />
      </mxCell>
    </object><object id="ddaae10ccd1c502d353cc25f9bf119f3" label="" source="Router-1" target="Router-3">
      <mxCell edge="1" parent="1" source="Router-1" style="endArrow=none;" target="Router-3">
          <mxGeometry as="geometry" relative="1" />
      </mxCell>
    </object><object id="d1118c7801a08b93f9dc2b9dba560b4d" label="" source="Router-1" target="node-2">
      <mxCell edge="1" parent="1" source="Router-1" style="endArrow=none;" target="node-2">
          <mxGeometry as="geometry" relative="1" />
      </mxCell>
    </object><object id="a8e19d5ccf71f0a5774858eefaae2887" label="" source="Switch-1" target="Router-3">
      <mxCell edge="1" parent="1" source="Switch-1" style="endArrow=none;" target="Router-3">
          <mxGeometry as="geometry" relative="1" />
      </mxCell>
    </object><object id="85250893dd608a8236b83d69c7f086f7" label="" source="Building-1" target="Router-3">
      <mxCell edge="1" parent="1" source="Building-1" style="endArrow=none;" target="Router-3">
          <mxGeometry as="geometry" relative="1" />
      </mxCell>
    </object></root>
    </mxGraphModel>
  </diagram>
</mxfile>